<svg width="24" height="24" viewBox="0 0 24 24" fill="none" xmlns="http://www.w3.org/2000/svg">
<g id="Icons/Variant7">
<path id="Vector" d="M21.1667 1.84615H18.4167V0.923077C18.4167 0.678262 18.3201 0.443473 18.1482 0.270363C17.9763 0.0972524 17.7431 0 17.5 0C17.2569 0 17.0237 0.0972524 16.8518 0.270363C16.6799 0.443473 16.5833 0.678262 16.5833 0.923077V1.84615H7.41667V0.923077C7.41667 0.678262 7.32009 0.443473 7.14818 0.270363C6.97627 0.0972524 6.74311 0 6.5 0C6.25689 0 6.02373 0.0972524 5.85182 0.270363C5.67991 0.443473 5.58333 0.678262 5.58333 0.923077V1.84615H2.83333C2.3471 1.84615 1.88079 2.04066 1.53697 2.38688C1.19315 2.7331 1 3.20268 1 3.69231V22.1538C1 22.6435 1.19315 23.1131 1.53697 23.4593C1.88079 23.8055 2.3471 24 2.83333 24H21.1667C21.6529 24 22.1192 23.8055 22.463 23.4593C22.8068 23.1131 23 22.6435 23 22.1538V3.69231C23 3.20268 22.8068 2.7331 22.463 2.38688C22.1192 2.04066 21.6529 1.84615 21.1667 1.84615ZM5.58333 3.69231V4.61538C5.58333 4.8602 5.67991 5.09499 5.85182 5.2681C6.02373 5.44121 6.25689 5.53846 6.5 5.53846C6.74311 5.53846 6.97627 5.44121 7.14818 5.2681C7.32009 5.09499 7.41667 4.8602 7.41667 4.61538V3.69231H16.5833V4.61538C16.5833 4.8602 16.6799 5.09499 16.8518 5.2681C17.0237 5.44121 17.2569 5.53846 17.5 5.53846C17.7431 5.53846 17.9763 5.44121 18.1482 5.2681C18.3201 5.09499 18.4167 4.8602 18.4167 4.61538V3.69231H21.1667V7.38462H2.83333V3.69231H5.58333ZM21.1667 22.1538H2.83333V9.23077H21.1667V22.1538Z" fill="#BABBBC"/>
</g>
</svg>
