<svg xmlns="http://www.w3.org/2000/svg" width="135" height="44" viewBox="0 0 135 44" fill="none">
    <mask id="mask0_1296_7666" style="mask-type:luminance" maskUnits="userSpaceOnUse" x="0" y="0" width="135" height="44">
        <path d="M135 0.5H0V43.5H135V0.5Z" fill="white"/>
    </mask>
    <g mask="url(#mask0_1296_7666)">
        <path d="M33.9886 34.3955C33.7304 34.3955 33.4748 34.4438 33.2205 34.541C32.9669 34.6382 32.7145 34.7816 32.4648 34.972C32.253 35.1328 32.0301 35.3443 31.8007 35.5875C31.8008 35.4667 31.7963 35.3367 31.7817 35.1874C31.7616 34.9801 31.7434 34.7925 31.7272 34.6232C31.7272 34.5729 31.7032 34.5471 31.6546 34.5471H31.2556C31.207 34.5471 31.1829 34.577 31.1829 34.6361C31.207 34.8387 31.2251 35.0583 31.2375 35.2948C31.2498 35.5314 31.2556 35.751 31.2556 35.9542V42.9239C31.2556 42.9742 31.2796 43 31.3283 43H31.7512C31.7998 43 31.8239 42.9742 31.8239 42.9239V40.323C32.0792 40.4606 32.3457 40.5749 32.6282 40.6555C32.9545 40.7479 33.2633 40.7948 33.5533 40.7948C34.1981 40.7948 34.6982 40.5963 35.0531 40.1993C35.4073 39.8024 35.585 39.2443 35.585 38.5264V36.4736C35.585 35.7639 35.4501 35.2405 35.1796 34.902C34.9097 34.5641 34.5127 34.3955 33.9886 34.3955ZM35.0167 38.4884C35.0167 39.0546 34.8792 39.4917 34.6055 39.7996C34.3311 40.1083 33.9406 40.2626 33.4327 40.2626C33.1583 40.2626 32.8722 40.2163 32.5738 40.1232C32.3206 40.0442 32.0714 39.9358 31.8239 39.8085V36.1433C32.1878 35.7544 32.5251 35.4575 32.8339 35.2636C33.1764 35.0481 33.517 34.94 33.8556 34.94C34.2429 34.94 34.5328 35.0671 34.7261 35.32C34.9201 35.5735 35.0167 35.9712 35.0167 36.5116V38.4884ZM39.3942 34.3955C38.6845 34.3955 38.1363 34.592 37.7497 34.9842C37.3625 35.3771 37.1692 35.9413 37.1692 36.6761V38.5136C37.1692 39.2572 37.3625 39.8234 37.7497 40.2116C38.1363 40.6004 38.6845 40.7948 39.3942 40.7948C40.1117 40.7948 40.6637 40.6004 41.0509 40.2116C41.4375 39.8234 41.6315 39.2572 41.6315 38.5136V36.6761C41.6315 35.9331 41.4375 35.3669 41.0509 34.9781C40.6637 34.5899 40.1117 34.3955 39.3942 34.3955ZM41.0626 38.4503C41.0626 39.0505 40.9199 39.4999 40.6338 39.7996C40.3471 40.1001 39.9339 40.2497 39.3942 40.2497C38.8538 40.2497 38.4406 40.1001 38.1545 39.7996C37.8684 39.4999 37.7251 39.0506 37.7251 38.4503V36.7393C37.7251 36.1486 37.8684 35.7006 38.1545 35.3961C38.4406 35.0923 38.8538 34.94 39.3942 34.94C39.9339 34.94 40.3471 35.0923 40.6338 35.3961C40.9199 35.7006 41.0626 36.1486 41.0626 36.7393V38.4503ZM123.983 34.3955C123.274 34.3955 122.726 34.592 122.338 34.9842C121.951 35.3771 121.758 35.9413 121.758 36.6761V38.5136C121.758 39.2572 121.951 39.8234 122.338 40.2116C122.726 40.6004 123.274 40.7948 123.983 40.7948C124.7 40.7948 125.252 40.6004 125.64 40.2116C126.026 39.8234 126.22 39.2572 126.22 38.5136V36.6761C126.22 35.9331 126.026 35.3669 125.64 34.9781C125.252 34.5899 124.7 34.3955 123.983 34.3955ZM125.652 38.4503C125.652 39.0505 125.509 39.4999 125.222 39.7996C124.936 40.1001 124.523 40.2497 123.983 40.2497C123.443 40.2497 123.03 40.1001 122.743 39.7996C122.457 39.4999 122.314 39.0506 122.314 38.4503V36.7393C122.314 36.1486 122.457 35.7006 122.743 35.3961C123.03 35.0923 123.443 34.94 123.983 34.94C124.523 34.94 124.936 35.0923 125.222 35.3961C125.509 35.7006 125.652 36.1486 125.652 36.7393V38.4503ZM20.8797 34.5471C20.8395 34.5471 20.8116 34.5641 20.7954 34.5981L18.3887 38.6529C18.2681 38.8561 18.1532 39.0607 18.0443 39.2674C17.9353 39.4747 17.8204 39.6794 17.6998 39.8826H17.6875C17.7037 39.663 17.7153 39.4258 17.7238 39.1729C17.7316 38.9194 17.7361 38.6828 17.7361 38.4632V34.6232C17.7361 34.5729 17.7115 34.5471 17.6635 34.5471H17.2522C17.2035 34.5471 17.1795 34.5729 17.1795 34.6232V40.5793C17.1795 40.6296 17.2035 40.6555 17.2522 40.6555H17.7238C17.7556 40.6555 17.7802 40.6385 17.7964 40.6045L20.2511 36.4607C20.3556 36.2751 20.4626 36.0868 20.5715 35.8971C20.6805 35.7068 20.783 35.5151 20.8797 35.32H20.9043C20.8881 35.5403 20.8758 35.7721 20.868 36.0174C20.8596 36.2622 20.8557 36.4947 20.8557 36.7142V40.5793C20.8557 40.6296 20.8797 40.6555 20.9284 40.6555H21.3396C21.3877 40.6555 21.4123 40.6296 21.4123 40.5793V34.6232C21.4123 34.5729 21.3877 34.5471 21.3396 34.5471H20.8797ZM15.1602 40.1232V34.6232C15.1602 34.5729 15.1361 34.5471 15.0875 34.5471H14.6522C14.612 34.5471 14.5919 34.5729 14.5919 34.6232V40.1232H11.5683V34.6232C11.5683 34.5729 11.5443 34.5471 11.4956 34.5471H11.0727C11.024 34.5471 11 34.5729 11 34.6232V40.5793C11 40.6296 11.024 40.6555 11.0727 40.6555H15.3897V42.2774C15.3897 42.2944 15.3976 42.3107 15.4138 42.3277C15.43 42.3447 15.4462 42.3536 15.4624 42.3536H15.8614C15.8853 42.3536 15.9035 42.3447 15.9158 42.3277C15.9282 42.3107 15.934 42.2944 15.934 42.2774V40.1993C15.934 40.1484 15.91 40.1232 15.8614 40.1232H15.1602ZM27.0955 34.3955H26.6116V32.0761C26.6116 32.0258 26.5876 32 26.5389 32H26.116C26.0673 32 26.0433 32.0258 26.0433 32.0761V34.3955H25.5717C24.7894 34.3955 24.1952 34.5899 23.7878 34.978C23.3804 35.3669 23.1774 35.9243 23.1774 36.651V38.5394C23.1774 39.2742 23.3804 39.8336 23.7878 40.2184C24.1952 40.6024 24.7894 40.7948 25.5717 40.7948H26.0433V42.9239C26.0433 42.9741 26.0673 43 26.116 43H26.5389C26.5876 43 26.6116 42.9741 26.6116 42.9239V40.7948H27.0955C27.8772 40.7948 28.4721 40.6024 28.8788 40.2184C29.2862 39.8336 29.4898 39.2742 29.4898 38.5394V36.651C29.4898 35.9243 29.2862 35.3669 28.8788 34.978C28.4721 34.5899 27.8772 34.3955 27.0955 34.3955ZM26.0557 40.2625H25.5354C24.9548 40.2625 24.5092 40.1123 24.1991 39.8126C23.8884 39.5128 23.7333 39.0716 23.7333 38.4884V36.7012C23.7333 36.1268 23.8884 35.6878 24.1991 35.3839C24.5092 35.0794 24.9548 34.9278 25.5354 34.9278H26.0557V40.2625ZM28.9216 38.4884C28.9216 39.0716 28.7704 39.5128 28.4681 39.8126C28.1658 40.1123 27.7163 40.2625 27.1195 40.2625H26.6116V34.9278H27.1195C27.7163 34.9278 28.1659 35.0793 28.4681 35.3838C28.7704 35.6878 28.9216 36.1268 28.9216 36.7012V38.4884ZM95.2867 34.3955C94.5932 34.3955 94.0631 34.594 93.6964 34.991C93.3298 35.388 93.1464 35.9665 93.1464 36.7271V38.6026C93.1464 39.3204 93.3317 39.8676 93.7024 40.2435C94.0737 40.6194 94.6138 40.803 95.3232 40.7948C95.9842 40.786 96.4863 40.6344 96.8284 40.3387C97.1712 40.043 97.3386 39.629 97.3306 39.0967C97.322 39.0546 97.3021 39.0335 97.2702 39.0335H96.8351C96.7866 39.0335 96.7627 39.0587 96.7627 39.109C96.77 39.4727 96.6531 39.7554 96.4113 39.9581C96.1695 40.1613 95.8148 40.2626 95.3478 40.2626C94.7911 40.2626 94.378 40.1164 94.1076 39.8255C93.8372 39.5339 93.7024 39.0839 93.7024 38.4755V37.6523H97.3784C97.4276 37.6523 97.4515 37.6264 97.4515 37.5762V36.7012C97.4515 35.9495 97.2675 35.3771 96.9015 34.9842C96.5342 34.592 95.9961 34.3955 95.2867 34.3955ZM96.8829 37.1323H93.7024V36.7271C93.7024 36.1439 93.8372 35.6986 94.1076 35.39C94.378 35.0821 94.7745 34.9278 95.2986 34.9278C95.8227 34.9278 96.218 35.0794 96.4843 35.3839C96.7501 35.6878 96.8829 36.1357 96.8829 36.7271V37.1323ZM131.667 37.8739C131.445 37.6332 131.154 37.483 130.791 37.4239V37.411C131.121 37.3097 131.367 37.137 131.528 36.8916C131.69 36.6469 131.771 36.3424 131.771 35.9793C131.771 35.4974 131.617 35.1385 131.31 34.902C131.004 34.6661 130.541 34.5471 129.92 34.5471H128.046C127.997 34.5471 127.973 34.5729 127.973 34.6232V40.5793C127.973 40.6296 127.997 40.6555 128.046 40.6555H130.029C130.739 40.6555 131.245 40.5073 131.547 40.2116C131.849 39.9159 132 39.4768 132 38.8942C132 38.4544 131.889 38.1145 131.667 37.8739ZM128.541 35.0542H129.969C130.395 35.0542 130.71 35.1412 130.912 35.3139C131.113 35.4872 131.214 35.7347 131.214 36.0555C131.214 36.4185 131.113 36.704 130.912 36.9106C130.71 37.118 130.42 37.2213 130.041 37.2213H128.541V35.0542ZM131.117 39.8126C130.908 40.028 130.549 40.1354 130.041 40.1354H128.541V37.7026H130.078C130.521 37.7026 130.857 37.7977 131.087 37.9881C131.316 38.1777 131.432 38.4802 131.432 38.8942C131.432 39.2912 131.327 39.5971 131.117 39.8126ZM119.496 34.5471C119.448 34.5471 119.424 34.5729 119.424 34.6232V37.2213H116.328V34.6232C116.328 34.5729 116.304 34.5471 116.255 34.5471H115.832C115.783 34.5471 115.759 34.5729 115.759 34.6232V40.5793C115.759 40.6296 115.783 40.6555 115.832 40.6555H116.255C116.304 40.6555 116.328 40.6296 116.328 40.5793V37.7536H119.424V40.5793C119.424 40.6296 119.448 40.6555 119.496 40.6555H119.92C119.967 40.6555 119.992 40.6296 119.992 40.5793V34.6232C119.992 34.5729 119.967 34.5471 119.92 34.5471H119.496ZM76.2528 34.5471C76.2123 34.5471 76.1844 34.5641 76.1684 34.5981L73.7618 38.6529C73.6409 38.8561 73.526 39.0607 73.417 39.2674C73.3081 39.4747 73.1932 39.6794 73.0723 39.8826H73.0603C73.0763 39.663 73.0882 39.4258 73.0969 39.1729C73.1042 38.9194 73.1088 38.6828 73.1088 38.4632V34.6232C73.1088 34.5729 73.0842 34.5471 73.0364 34.5471H72.6252C72.5761 34.5471 72.5522 34.5729 72.5522 34.6232V40.5793C72.5522 40.6296 72.5761 40.6555 72.6252 40.6555H73.0969C73.1281 40.6555 73.1533 40.6385 73.1693 40.6045L75.6237 36.4607C75.7287 36.2751 75.8356 36.0868 75.9446 35.8971C76.0535 35.7068 76.1558 35.5151 76.2528 35.32H76.2774C76.2608 35.5403 76.2488 35.7721 76.2408 36.0174C76.2322 36.2622 76.2282 36.4947 76.2282 36.7142V40.5793C76.2282 40.6296 76.2528 40.6555 76.3013 40.6555H76.7125C76.7603 40.6555 76.7849 40.6296 76.7849 40.5793V34.6232C76.7849 34.5729 76.7603 34.5471 76.7125 34.5471H76.2528ZM107.246 34.5471C107.206 34.5471 107.178 34.5641 107.162 34.5981L104.755 38.6529C104.634 38.8561 104.519 39.0607 104.41 39.2674C104.301 39.4747 104.187 39.6794 104.066 39.8826H104.054C104.07 39.663 104.082 39.4258 104.09 39.1729C104.098 38.9194 104.102 38.6828 104.102 38.4632V34.6232C104.102 34.5729 104.078 34.5471 104.03 34.5471H103.619C103.57 34.5471 103.545 34.5729 103.545 34.6232V40.5793C103.545 40.6296 103.57 40.6555 103.619 40.6555H104.09C104.122 40.6555 104.147 40.6385 104.163 40.6045L106.617 36.4607C106.722 36.2751 106.829 36.0868 106.938 35.8971C107.047 35.7068 107.149 35.5151 107.246 35.32H107.271C107.254 35.5403 107.242 35.7721 107.234 36.0174C107.226 36.2622 107.222 36.4947 107.222 36.7142V40.5793C107.222 40.6296 107.246 40.6555 107.295 40.6555H107.706C107.754 40.6555 107.779 40.6296 107.779 40.5793V34.6232C107.779 34.5729 107.754 34.5471 107.706 34.5471H107.246ZM80.5818 34.5471C79.9049 34.5471 79.3941 34.7055 79.0513 35.0222C78.7093 35.339 78.5379 35.8149 78.5379 36.4484C78.5379 36.9297 78.6382 37.3117 78.8401 37.5952C79.042 37.878 79.3403 38.0663 79.7355 38.1587V38.1716C79.6379 38.315 79.5436 38.4612 79.4512 38.6087C79.3582 38.7569 79.2679 38.9064 79.1789 39.0587L78.2961 40.5664C78.2635 40.6255 78.2795 40.6555 78.3446 40.6555H78.8401C78.8806 40.6555 78.9125 40.6385 78.9371 40.6045L80.3035 38.26H82.0087V40.5793C82.0087 40.6296 82.0332 40.6555 82.0811 40.6555H82.5049C82.5527 40.6555 82.5766 40.6296 82.5766 40.5793V34.6232C82.5766 34.5729 82.5527 34.5471 82.5049 34.5471H80.5818ZM82.0087 37.7406H80.4609C80.0012 37.7406 79.6605 37.6332 79.4386 37.4177C79.2168 37.2023 79.1058 36.8787 79.1058 36.4484C79.1058 36.0004 79.2227 35.6585 79.4572 35.4219C79.6904 35.1854 80.0617 35.0671 80.5699 35.0671H82.0087V37.7406ZM99.253 34.5471C99.2038 34.5471 99.1799 34.5729 99.1799 34.6232V40.5793C99.1799 40.6296 99.2038 40.6555 99.253 40.6555H99.6755C99.7246 40.6555 99.7486 40.6296 99.7486 40.5793V35.0671H102.24C102.288 35.0671 102.312 35.0413 102.312 34.991V34.6232C102.312 34.5729 102.288 34.5471 102.24 34.5471H99.253ZM89.9659 34.3955C89.7075 34.3955 89.4524 34.4438 89.198 34.541C88.9443 34.6382 88.6918 34.7816 88.4421 34.972C88.2302 35.1328 88.0076 35.3443 87.7778 35.5875C87.7785 35.4667 87.7738 35.3367 87.7592 35.1874C87.7393 34.9801 87.7207 34.7925 87.7047 34.6232C87.7047 34.5729 87.6808 34.5471 87.6317 34.5471H87.2331C87.1846 34.5471 87.16 34.577 87.16 34.6361C87.1846 34.8387 87.2026 35.0583 87.2145 35.2948C87.2271 35.5314 87.2331 35.751 87.2331 35.9542V42.9239C87.2331 42.9742 87.257 43 87.3055 43H87.7287C87.7771 43 87.8011 42.9742 87.8011 42.9239V40.323C88.0568 40.4606 88.3232 40.5749 88.6055 40.6555C88.9316 40.7479 89.2405 40.7948 89.5308 40.7948C90.1758 40.7948 90.6753 40.5963 91.0307 40.1993C91.3848 39.8024 91.5621 39.2443 91.5621 38.5264V36.4736C91.5621 35.7639 91.4273 35.2405 91.1569 34.902C90.8872 34.5641 90.49 34.3955 89.9659 34.3955ZM90.9942 38.4884C90.9942 39.0546 90.8567 39.4917 90.583 39.7996C90.3087 40.1083 89.9181 40.2626 89.4099 40.2626C89.1356 40.2626 88.8493 40.2163 88.551 40.1232C88.2979 40.0442 88.0488 39.9358 87.8011 39.8085V36.1433C88.1651 35.7544 88.5025 35.4575 88.8114 35.2636C89.1535 35.0481 89.4943 34.94 89.833 34.94C90.2203 34.94 90.5099 35.0671 90.7032 35.32C90.8972 35.5735 90.9942 35.9712 90.9942 36.5116V38.4884ZM64.4138 39.1981V36.3213C64.4138 35.6456 64.2665 35.1555 63.972 34.8516C63.6775 34.5471 63.2241 34.3955 62.6117 34.3955C61.9909 34.4037 61.5212 34.5498 61.2027 34.8326C60.8842 35.1154 60.737 35.5062 60.7616 36.0045C60.7616 36.0806 60.7856 36.1187 60.8342 36.1187H61.2573C61.2974 36.1187 61.3176 36.0936 61.3176 36.0425C61.3176 35.2996 61.7412 34.9278 62.5877 34.9278C63.047 34.9278 63.3713 35.0352 63.5607 35.2507C63.7502 35.4661 63.8449 35.8271 63.8449 36.3342V37.0939L62.5754 37.2335C62.0752 37.2845 61.6685 37.3879 61.3539 37.5442C61.0392 37.7005 60.8116 37.9119 60.6708 38.1777C60.5294 38.4442 60.4593 38.7719 60.4593 39.16C60.4593 39.6841 60.5722 40.0872 60.798 40.3699C61.023 40.6534 61.3578 40.7948 61.8015 40.7948C62.1479 40.7948 62.4923 40.6867 62.8355 40.4713C63.1417 40.2792 63.4871 39.9599 63.8674 39.5278C63.8747 39.6771 63.8818 39.8258 63.8935 39.9839C63.9097 40.2034 63.9253 40.3978 63.9422 40.5664C63.95 40.6255 63.9779 40.6555 64.0265 40.6555H64.4138C64.4618 40.6555 64.4819 40.6296 64.4741 40.5793C64.4579 40.3849 64.4436 40.1735 64.432 39.9458C64.4196 39.7174 64.4138 39.4686 64.4138 39.1981ZM63.8449 38.9795C63.4988 39.3952 63.177 39.7132 62.8835 39.9206C62.5494 40.1572 62.2329 40.2748 61.9345 40.2748C61.6198 40.2748 61.3902 40.1762 61.2449 39.9771C61.1002 39.7792 61.0275 39.4938 61.0275 39.1219C61.0275 38.6828 61.1443 38.3511 61.3779 38.1274C61.612 37.9038 62.0149 37.7617 62.5877 37.7026L63.8448 37.5624L63.8449 38.9795ZM57.8833 37.5129V37.5C58.1818 37.4069 58.4237 37.2274 58.6092 36.9617C58.7947 36.6952 58.8875 36.3641 58.8875 35.9665C58.8875 35.4512 58.7241 35.0603 58.3978 34.7945C58.0708 34.5281 57.5934 34.3956 56.9648 34.3956C56.3115 34.3956 55.8075 34.5349 55.4527 34.8136C55.0978 35.0923 54.9285 35.4723 54.9447 35.9542C54.9532 36.0297 54.985 36.0677 55.042 36.0677H55.4527C55.4929 36.0677 55.5137 36.0345 55.5137 35.9665C55.5052 35.6204 55.6304 35.3608 55.8886 35.1875C56.1461 35.0141 56.4971 34.9278 56.9401 34.9278C57.4078 34.9278 57.7588 35.0222 57.9923 35.2126C58.2265 35.4029 58.3432 35.6796 58.3432 36.0426C58.3432 36.4314 58.2239 36.7333 57.9865 36.9487C57.7484 37.1642 57.4001 37.2716 56.9401 37.2716H56.0936C56.0455 37.2716 56.0216 37.3015 56.0216 37.3606V37.6904C56.0216 37.7406 56.0455 37.7658 56.0936 37.7658H57.0368C57.4883 37.7658 57.8392 37.861 58.089 38.0513C58.3387 38.241 58.4639 38.5347 58.4639 38.9316C58.4639 39.3884 58.3432 39.7263 58.1013 39.9458C57.8593 40.1654 57.4643 40.2749 56.9161 40.2749C56.392 40.2749 56.0171 40.1864 55.7913 40.009C55.5656 39.8316 55.4526 39.5488 55.4526 39.16C55.4526 39.0927 55.4286 39.0587 55.3806 39.0587H54.9694C54.9207 39.0587 54.8922 39.0968 54.8844 39.1729C54.8604 39.6963 55.0096 40.098 55.332 40.3768C55.6544 40.6555 56.1863 40.7948 56.9284 40.7948C58.3309 40.7948 59.0322 40.1695 59.0322 38.9194C59.0322 38.5394 58.9257 38.2246 58.7117 37.9751C58.4983 37.7264 58.222 37.572 57.8833 37.5129ZM52.6711 34.5471C52.6308 34.5471 52.6029 34.5641 52.5867 34.5981L50.1801 38.6529C50.0594 38.8562 49.9446 39.0607 49.8356 39.2674C49.7267 39.4747 49.6118 39.6794 49.4912 39.8826H49.4788C49.495 39.663 49.5067 39.4258 49.5151 39.1729C49.5229 38.9194 49.5275 38.6828 49.5275 38.4632V34.6232C49.5275 34.5729 49.5028 34.5471 49.4548 34.5471H49.0435C48.9949 34.5471 48.9709 34.5729 48.9709 34.6232V40.5793C48.9709 40.6296 48.9949 40.6555 49.0435 40.6555H49.5151C49.547 40.6555 49.5716 40.6385 49.5878 40.6045L52.0425 36.4607C52.1469 36.2751 52.254 36.0868 52.3629 35.8971C52.4719 35.7068 52.5744 35.5151 52.6711 35.32H52.6957C52.6795 35.5403 52.6672 35.7721 52.6594 36.0174C52.6509 36.2622 52.6471 36.4947 52.6471 36.7142V40.5794C52.6471 40.6296 52.6711 40.6555 52.7197 40.6555H53.131C53.179 40.6555 53.2036 40.6296 53.2036 40.5794V34.6232C53.2036 34.5729 53.179 34.5471 53.131 34.5471H52.6711ZM46.2023 37.4239V37.411C46.5325 37.3097 46.7783 37.137 46.9398 36.8916C47.1007 36.6469 47.1818 36.3424 47.1818 35.9793C47.1818 35.4974 47.0281 35.1385 46.7218 34.902C46.4157 34.6661 45.9518 34.5471 45.3311 34.5471H43.457C43.4083 34.5471 43.3843 34.5729 43.3843 34.6232V40.5793C43.3843 40.6296 43.4083 40.6555 43.457 40.6555H45.44C46.1497 40.6555 46.6557 40.5073 46.958 40.2116C47.2603 39.9159 47.4114 39.4768 47.4114 38.8942C47.4114 38.4544 47.3005 38.1145 47.0786 37.8739C46.8568 37.6332 46.5649 37.483 46.2023 37.4239ZM43.9526 35.0542H45.3797C45.8065 35.0542 46.1211 35.1412 46.3229 35.3139C46.524 35.4872 46.6252 35.7347 46.6252 36.0555C46.6252 36.4185 46.524 36.704 46.3229 36.9106C46.1211 37.118 45.8312 37.2213 45.4524 37.2213H43.9526V35.0542ZM46.5285 39.8126C46.319 40.028 45.9603 40.1354 45.4524 40.1354H43.9526V37.7026H45.4887C45.9318 37.7026 46.2684 37.7977 46.4981 37.9881C46.7277 38.1777 46.8431 38.4802 46.8431 38.8942C46.8431 39.2912 46.738 39.5971 46.5285 39.8126ZM111.769 34.3955C111.06 34.3955 110.512 34.592 110.125 34.9842C109.738 35.3771 109.544 35.9413 109.544 36.6761V38.5136C109.544 39.2572 109.738 39.8234 110.125 40.2116C110.512 40.6004 111.06 40.7948 111.769 40.7948C112.487 40.7948 113.039 40.6004 113.426 40.2116C113.812 39.8234 114.006 39.2572 114.006 38.5136V36.6761C114.006 35.9331 113.812 35.3669 113.426 34.9781C113.039 34.5899 112.487 34.3955 111.769 34.3955ZM113.438 38.4503C113.438 39.0505 113.295 39.4999 113.009 39.7996C112.722 40.1001 112.309 40.2497 111.769 40.2497C111.229 40.2497 110.816 40.1001 110.53 39.7996C110.243 39.4999 110.1 39.0506 110.1 38.4503V36.7393C110.1 36.1486 110.243 35.7006 110.53 35.3961C110.816 35.0923 111.229 34.94 111.769 34.94C112.309 34.94 112.722 35.0923 113.009 35.3961C113.295 35.7006 113.438 36.1486 113.438 36.7393V38.4503ZM70.5328 40.1232V34.6232C70.5328 34.5729 70.5089 34.5471 70.4604 34.5471H70.0253C69.9848 34.5471 69.9648 34.5729 69.9648 34.6232V40.1232H66.9411V34.6232C66.9411 34.5729 66.9172 34.5471 66.8687 34.5471H66.4455C66.3968 34.5471 66.3728 34.5729 66.3728 34.6232V40.5793C66.3728 40.6296 66.3968 40.6555 66.4455 40.6555H70.7626V42.2774C70.7626 42.2944 70.7706 42.3107 70.7865 42.3277C70.8025 42.3447 70.8191 42.3536 70.835 42.3536H71.2343C71.2582 42.3536 71.2761 42.3447 71.2887 42.3277C71.3007 42.3107 71.3067 42.2944 71.3067 42.2774V40.1993C71.3067 40.1484 71.2828 40.1232 71.2343 40.1232H70.5328Z" fill="white"/>
        <path d="M97.5208 5.46178C96.5312 4.48441 95.1654 4 93.4235 4H86.2791V6.3626H93.038C95.1654 6.3626 96.2251 7.4334 96.2251 9.56652V13.4334C96.2251 15.5496 95.1654 16.6034 93.038 16.6034H88.4765V16.6373H86.962C84.8346 16.6373 83.7756 15.5666 83.7756 13.4335V9.56658C83.7756 7.54384 84.7546 6.50301 86.6979 6.41406V4.00001H86.5765C84.8346 4.00001 83.4688 4.47593 82.4798 5.43626C81.4902 6.39658 81 7.73086 81 9.45608V13.5439C81 15.2351 81.4902 16.5694 82.4798 17.5382C83.4688 18.5156 84.8346 19 86.5765 19H93.4235C95.1654 19 96.5312 18.5241 97.5208 17.5638C98.5098 16.6034 99 15.2691 99 13.5439V9.45608C99 7.76485 98.5098 6.43057 97.5208 5.46178Z" fill="#2CE817"/>
        <path d="M90.5019 0H86.49C86.1635 0 86 0.172094 86 0.524931V2.20362C86 2.54797 86.1635 2.72871 86.49 2.72871H88.4126V23.4835C88.4126 23.8278 88.5756 24 88.9101 24H90.5019C90.8284 24 91 23.8278 91 23.4835V0.516486C91 0.172173 90.8371 0 90.5019 0Z" fill="white"/>
        <path d="M111.416 4H104.534C104.175 4 104 4.18337 104 4.53252V23.4762C104 23.8254 104.175 24 104.534 24H106.244C106.595 24 106.779 23.8254 106.779 23.4762V19.4075H111.416C113.16 19.4075 114.528 18.9187 115.518 17.9323C116.509 16.9459 117 15.5753 117 13.8032V9.60428C117 7.86716 116.509 6.49663 115.518 5.5015C114.528 4.49762 113.16 4 111.416 4ZM114.221 13.6897C114.221 15.8634 113.16 16.9459 111.03 16.9459H106.779V6.42681H111.03C113.16 6.42681 114.221 7.52671 114.221 9.71785V13.6897Z" fill="white"/>
        <path d="M135 9.45568C135 7.76457 134.508 6.43039 133.518 5.46167C132.527 4.48438 131.159 4 129.414 4H127.583C125.838 4 124.47 4.48438 123.479 5.46167C123.035 5.89592 122.701 6.41123 122.462 6.99459C122.367 7.2251 122.51 7.48461 122.755 7.5564L124.568 8.08706C124.793 8.15289 125.017 8.03275 125.116 7.82607C125.582 6.85244 126.531 6.36242 127.969 6.36242H129.028C131.117 6.36242 132.171 7.39735 132.212 9.44584L124.779 11.2064L122 11.8666V13.5432C122 13.8021 122.013 14.048 122.033 14.2876C122.154 15.6599 122.635 16.7474 123.476 17.563C124.471 18.5211 125.841 19 127.584 19H135V13.1142V9.45568ZM127.971 16.6049C125.907 16.6049 124.845 15.6146 124.785 13.6338L132.219 11.8795L132.22 12.4771V16.6049H127.971Z" fill="white"/>
        <path d="M58.4664 17.1051H55.6966V4.535C55.6966 4.17863 55.519 4 55.1638 4H53.4872C53.1312 4 52.9544 4.17863 52.9544 4.535V17.1051H45.7423V4.535C45.7423 4.17863 45.5654 4 45.2095 4H43.5328C43.1776 4 43 4.17863 43 4.535V19.016C43 19.3732 43.1776 19.551 43.5328 19.551H56.562V21.4646C56.562 21.8218 56.7391 22 57.0951 22H58.4667C58.8219 22 59 21.8218 59 21.4646V17.6401C59 17.2837 58.8224 17.1051 58.4664 17.1051Z" fill="white"/>
        <path d="M14.4155 4H7.53479C7.1753 4 7 4.18337 7 4.53252V23.4762C7 23.8254 7.1753 24 7.53479 24H9.24348C9.53926 24 9.7792 23.7612 9.7792 23.4665V19.4075H14.4155C16.1602 19.4075 17.5277 18.9187 18.5184 17.9323C19.5091 16.9459 20 15.5753 20 13.8032V9.60427C20 7.86716 19.5091 6.49663 18.5184 5.50149C17.5277 4.49762 16.1602 4 14.4155 4ZM17.221 13.6897C17.221 15.8634 16.1602 16.9459 14.0295 16.9459H9.7792V6.42687H14.0295C16.1602 6.42687 17.221 7.5267 17.221 9.71785V13.6897Z" fill="white"/>
        <path d="M36.5238 5.43702C35.5285 4.47901 34.1592 4 32.4159 4H31.1467V4.00115H30.5857C28.8408 4.00115 27.4729 4.47703 26.4819 5.43729C25.4912 6.39759 25 7.73177 25 9.45686V13.5444C25 15.2354 25.4912 16.5696 26.4819 17.5384C27.4729 18.5156 28.8408 19 30.5857 19H32.417C34.1622 19 35.5302 18.5156 36.5209 17.5384C36.9653 17.1041 37.2986 16.5888 37.5386 16.0055C37.6336 15.775 37.49 15.5154 37.2448 15.4437L35.432 14.913C35.207 14.8471 34.9828 14.9672 34.8839 15.174C34.4182 16.1475 33.4696 16.6376 32.0312 16.6376H30.9717C28.8835 16.6376 27.8294 15.6026 27.7876 13.5541L35.2213 11.7937L38 11.1334V9.45686C38 9.19793 37.9866 8.95195 37.9665 8.71245C37.8464 7.34014 37.3654 6.25264 36.5238 5.43702ZM27.7801 11.1205L27.7798 9.56735C27.7798 7.45129 28.8408 6.39759 30.9717 6.39759H32.068C34.1042 6.41105 35.1548 7.39892 35.2146 9.36623L27.7801 11.1205Z" fill="white"/>
        <path d="M75.4684 4H73.9098C73.6052 4 73.4029 4.09835 73.3014 4.29464L66.0501 16.6459H65.7353V4.51847C65.7353 4.17847 65.5598 4 65.2092 4H63.5347C63.1752 4 63 4.17848 63 4.51847V18.4817C63 18.8301 63.1752 19 63.5347 19H67.5121L73.1111 9.527H73.2633V18.4842C73.2633 18.8286 73.441 19 73.7949 19H75.4684C75.8237 19 76 18.8286 76 18.4842V4.51583C76 4.17223 75.8237 4 75.4684 4Z" fill="white"/>
        <path d="M3.21335 4.11456L0.172043 6.70287C-0.170479 6.99435 0.0327364 7.56062 0.479822 7.56062H2.10774L3.15424 8.82551C3.44169 9.17292 4 8.96677 4 8.51334V4.48662C4 4.07405 3.525 3.84938 3.21335 4.11456Z" fill="white"/>
    </g>
</svg>