<svg xmlns="http://www.w3.org/2000/svg" width="24" height="24" viewBox="0 0 24 24" fill="none">
    <path fill-rule="evenodd" clip-rule="evenodd" d="M19.75 7.67714C19.8686 7.28714 19.75 7 19.1821 7H17.3071C16.83 7 16.61 7.24786 16.4907 7.52143C16.4907 7.52143 15.5371 9.80429 14.1864 11.2871C13.7493 11.7171 13.5507 11.8536 13.3121 11.8536C13.1929 11.8536 13.0136 11.7171 13.0136 11.3264V7.67714C13.0136 7.20857 12.8821 7 12.485 7H9.53643C9.23857 7 9.05929 7.21714 9.05929 7.42357C9.05929 7.86714 9.735 7.97 9.80429 9.21857V11.9314C9.80429 12.5264 9.695 12.6343 9.45643 12.6343C8.82072 12.6343 7.27429 10.3407 6.35643 7.71643C6.17857 7.20571 5.99857 7 5.51929 7H3.64286C3.10714 7 3 7.24786 3 7.52143C3 8.00857 3.63571 10.4286 5.96072 13.6293C7.51072 15.815 9.69286 17 11.6807 17C12.8729 17 13.02 16.7371 13.02 16.2836V14.6314C13.02 14.105 13.1329 14 13.5107 14C13.7893 14 14.2657 14.1371 15.3786 15.1907C16.65 16.44 16.8593 17 17.575 17H19.45C19.9857 17 20.2543 16.7371 20.1 16.2171C19.93 15.7 19.3229 14.9493 18.5179 14.0586C18.0807 13.5514 17.425 13.005 17.2257 12.7314C16.9479 12.3807 17.0271 12.2243 17.2257 11.9121C17.2257 11.9121 19.5114 8.75071 19.7493 7.67714" fill="#27282A"/>
</svg>