<svg xmlns="http://www.w3.org/2000/svg" width="240" height="36" viewBox="0 0 240 36" fill="none">
    <path d="M15.0496 12L22 0H8L15.0496 12Z" fill="#EF6423"/>
    <path fill-rule="evenodd" clip-rule="evenodd" d="M34.1161 4.27842L41.2693 16.1812L30.002 35.2532L22.7208 23.3355L34.1161 4.27842ZM41.9446 17.3226L34.8691 29.244L38.5019 35.2532H52.8858L41.9446 17.3226ZM28.6901 35.2532H14.3063L0 11.7535L7.15313 0L28.6901 35.2532ZM73.8911 4.55072V9.59754C75.3737 9.51921 76.9146 9.01565 76.9146 7.0648C76.9146 5.11396 75.4514 4.6104 73.8911 4.55072ZM236.367 21.8136H240V35.4583H236.367V21.8136ZM225.985 29.0239V32.3399C226.815 32.3399 227.728 32.3586 228.577 32.3399C230.689 32.3213 230.569 29.0239 228.577 29.0239H225.985ZM225.985 21.8136V25.8869H228.601C235.397 25.8869 235.397 35.4397 228.601 35.4583H222.352V21.8136H225.985ZM214.803 24.932C213.953 24.9133 213.041 24.932 212.206 24.932V28.8299H214.803C216.794 28.8299 216.914 24.9506 214.803 24.932ZM208.577 35.4583V21.8136H214.826C221.622 21.8323 221.622 31.9707 214.826 31.9707H212.206V35.4583H208.577ZM201.195 35.4583H197.5V21.8136H206.346V24.932H201.195V35.4583ZM191.352 28.6546C191.352 23.7421 184.234 23.7421 184.234 28.6546C184.234 33.6082 191.352 33.6082 191.352 28.6546ZM180.644 29.9825H178.901V35.4583H175.187V21.8136H178.901V26.7634H180.745C182.488 19.2025 195.067 19.8628 195.067 28.6546C195.067 37.6441 181.944 38.0694 180.644 29.9825ZM166.24 28.592V25.22C165.39 25.22 164.498 25.2014 163.644 25.22C161.575 25.2424 161.676 28.592 163.644 28.592H166.24ZM160.643 30.9121C157.053 28.5734 158.066 22.1203 163.644 22.1017H169.869V35.7464H166.24V31.7328H164.354L161.92 35.7464H157.864V35.2391L160.643 30.9121ZM145.021 35.7687H143.725V22.1017H147.436V28.7897L154.616 22.042H155.936V35.7464H152.182V29.0434L145.021 35.7687ZM131.208 25.22V22.1017H141.757V25.22H138.287V35.7464H134.697V25.22H131.208ZM118.365 35.7687H117.069V22.1017H120.779V28.7897L127.96 22.042H129.279V35.7464H125.526V29.0434L118.365 35.7687ZM106.946 30.3265V32.6504H109.846C111.305 32.6504 111.286 30.3265 109.826 30.3265H106.946ZM106.946 25.22V27.4245H109.236C110.676 27.4245 110.676 25.22 109.217 25.22H106.946ZM112.807 28.6517C113.964 29.2187 114.511 30.2295 114.511 31.4381C114.488 33.8179 112.99 35.7464 110.09 35.7464H103.438V22.1017H109.5C111.953 22.1017 113.921 23.9331 113.921 26.2943C113.921 27.1112 113.498 28.1071 112.807 28.6517ZM91.0838 25.5333C90.9635 23.0193 93.0904 21.848 95.5667 21.848C98.6678 21.848 100.232 23.8175 100.232 25.8056C100.232 26.7009 99.8244 27.7378 98.9938 28.3421C100.434 29.0807 101.043 30.1736 101.043 31.7104C101.043 34.1312 99.215 36 95.5667 36C92.485 36 90.5948 34.3625 90.5948 31.3038H93.7813C93.7813 32.3743 94.511 33.057 95.5667 33.057C98.0002 33.057 98.0002 29.9572 95.5667 29.9572H94.5731V27.1112H95.524C97.3093 27.1112 97.2705 24.7351 95.5667 24.7351C94.7749 24.7351 94.3091 25.0261 94.3091 25.5333H91.0838ZM82.844 27.4618L81.2449 31.0502H84.4896L82.844 27.4618ZM85.6656 34.0305H80.065L79.2344 35.7464H75.6869V35.2391L82.0755 21.9263H83.6357L90.0475 35.2391V35.7464H86.4962L85.6656 34.0305ZM70.7772 25.22C69.9233 25.2014 69.0112 25.22 68.1806 25.22V29.118H70.7772C72.7644 29.118 72.8847 25.2424 70.7772 25.22ZM64.5478 35.7464V22.1017H70.7966C77.5926 22.1203 77.5926 32.2587 70.7966 32.2587H68.1806V35.7464H64.5478ZM117.691 10.8471H121.708L119.659 5.91593L117.691 10.8471ZM115.58 15.4463H112.579V10.8844H114.019L118.886 0.0857922H120.45L125.477 10.8844H126.959V15.4463H123.979V13.9468H115.58V15.4463ZM111.015 13.9058H107.301V8.43002H102.923V13.9058H99.2084V0.261107H102.923V5.21095H107.301V0.261107H111.015V13.9058ZM93.0412 7.10211C93.0412 2.18957 85.923 2.18957 85.923 7.10211C85.923 12.0557 93.0412 12.0557 93.0412 7.10211ZM82.1892 7.10211C82.1892 -2.33131 96.7555 -2.33131 96.7555 7.10211C96.7555 16.5579 82.1892 16.5579 82.1892 7.10211ZM70.5261 9.59754V4.55072C68.9619 4.6104 67.5026 5.11396 67.5026 7.0648C67.5026 9.01565 69.0434 9.51921 70.5261 9.59754ZM70.4834 12.8166C66.8117 12.6973 63.7921 11.3134 63.7921 7.0648C63.7921 2.83487 66.7923 1.46966 70.464 1.35403V0.205155H73.9532V1.35403C77.6249 1.46966 80.6251 2.83487 80.6251 7.0648C80.6251 11.3134 77.6016 12.6973 73.9299 12.8166V13.9655H70.4834V12.8166Z" fill="white"/>
</svg>
